<?xml version="1.0" encoding="UTF-8"?>
<!DOCTYPE svg PUBLIC "-//W3C//DTD SVG 1.1//EN" "http://www.w3.org/Graphics/SVG/1.1/DTD/svg11.dtd">
<svg xmlns="http://www.w3.org/2000/svg" version="1.1" width="300px" height="83px" style="shape-rendering:geometricPrecision; text-rendering:geometricPrecision; image-rendering:optimizeQuality; fill-rule:evenodd; clip-rule:evenodd" xmlns:xlink="http://www.w3.org/1999/xlink">
<g><path style="opacity:0.975" fill="#fe9446" d="M 11.5,-0.5 C 12.5,-0.5 13.5,-0.5 14.5,-0.5C 14.5,22.1667 14.5,44.8333 14.5,67.5C 11.0699,68.5416 8.40325,70.5416 6.5,73.5C 4.16667,74.8333 1.83333,76.1667 -0.5,77.5C -0.5,54.1667 -0.5,30.8333 -0.5,7.5C 3.53684,4.82018 7.53684,2.15351 11.5,-0.5 Z"/></g>
<g><path style="opacity:0.996" fill="#fe6902" d="M 14.5,-0.5 C 37.1667,-0.5 59.8333,-0.5 82.5,-0.5C 84.3179,4.27094 84.9846,9.27094 84.5,14.5C 83.5033,31.9921 83.1699,49.6588 83.5,67.5C 60.5,67.5 37.5,67.5 14.5,67.5C 14.5,44.8333 14.5,22.1667 14.5,-0.5 Z"/></g>
<g><path style="opacity:0.974" fill="#933b00" d="M 84.5,14.5 C 86.5,14.5 88.5,14.5 90.5,14.5C 90.5,37.1667 90.5,59.8333 90.5,82.5C 63.1667,82.5 35.8333,82.5 8.5,82.5C 6.73192,79.8375 6.06525,76.8375 6.5,73.5C 8.40325,70.5416 11.0699,68.5416 14.5,67.5C 37.5,67.5 60.5,67.5 83.5,67.5C 83.1699,49.6588 83.5033,31.9921 84.5,14.5 Z"/></g>
<g><path style="opacity:1" fill="#fff8f3" d="M 62.5,21.5 C 57.5,21.5 52.5,21.5 47.5,21.5C 47.19,24.7131 47.5233,27.7131 48.5,30.5C 51.9619,31.4816 55.6286,31.815 59.5,31.5C 59.5,33.1667 59.5,34.8333 59.5,36.5C 55.6286,36.185 51.9619,36.5184 48.5,37.5C 48.5,42.5 48.5,47.5 48.5,52.5C 45.1667,52.5 41.8333,52.5 38.5,52.5C 38.5,39.8333 38.5,27.1667 38.5,14.5C 46.5,14.5 54.5,14.5 62.5,14.5C 62.5,16.8333 62.5,19.1667 62.5,21.5 Z"/></g>
<g><path style="opacity:0.554" fill="#000000" d="M 172.5,16.5 C 178.488,16.664 179.821,19.164 176.5,24C 170.403,24.1475 169.07,21.6475 172.5,16.5 Z"/></g>
<g><path style="opacity:0.67" fill="#000000" d="M 240.5,18.5 C 251.921,17.5573 255.588,22.224 251.5,32.5C 255.658,37.581 255.325,42.4144 250.5,47C 246.625,48.5204 242.625,48.8538 238.5,48C 236.152,47.6541 234.319,46.4875 233,44.5C 233.146,41.0514 234.979,39.8847 238.5,41C 242.35,44.7182 245.35,44.2182 247.5,39.5C 246.034,36.1081 243.367,34.7747 239.5,35.5C 239.5,33.8333 239.5,32.1667 239.5,30.5C 241.591,30.6816 243.591,30.3482 245.5,29.5C 247.028,24.9155 245.362,23.4155 240.5,25C 237.186,28.5254 234.52,28.0254 232.5,23.5C 234.892,21.3088 237.558,19.6422 240.5,18.5 Z"/></g>
<g><path style="opacity:0.708" fill="#000000" d="M 269.5,18.5 C 271.167,18.5 272.833,18.5 274.5,18.5C 274.5,20.5 274.5,22.5 274.5,24.5C 270.606,24.1863 267.273,25.353 264.5,28C 276.241,27.8344 280.074,33.3344 276,44.5C 270,49.8333 264,49.8333 258,44.5C 255.133,38.2367 255.133,31.9034 258,25.5C 260.986,21.5818 264.819,19.2485 269.5,18.5 Z M 266.5,33.5 C 268.017,33.5106 269.184,34.1772 270,35.5C 271.913,41.0943 270.08,43.261 264.5,42C 261.568,38.2998 262.234,35.4665 266.5,33.5 Z"/></g>
<g><path style="opacity:0.739" fill="#000000" d="M 299.5,22.5 C 299.5,29.8333 299.5,37.1667 299.5,44.5C 294.833,48.5077 289.5,49.5077 283.5,47.5C 281.803,46.6364 280.637,45.3031 280,43.5C 278.059,36.8429 278.059,30.1762 280,23.5C 286.142,17.1749 292.642,16.8416 299.5,22.5 Z M 287.5,24.5 C 289.722,24.178 291.556,24.8446 293,26.5C 293.804,31.7513 293.637,36.918 292.5,42C 289.975,42.8959 287.808,42.3959 286,40.5C 285.003,34.9504 285.503,29.617 287.5,24.5 Z"/></g>
<g><path style="opacity:0.729" fill="#000000" d="M 110.5,19.5 C 116.5,19.5 122.5,19.5 128.5,19.5C 128.5,21.1667 128.5,22.8333 128.5,24.5C 124.833,24.5 121.167,24.5 117.5,24.5C 117.5,26.8333 117.5,29.1667 117.5,31.5C 120.833,31.5 124.167,31.5 127.5,31.5C 127.5,33.1667 127.5,34.8333 127.5,36.5C 124.167,36.5 120.833,36.5 117.5,36.5C 117.5,40.5 117.5,44.5 117.5,48.5C 115.167,48.5 112.833,48.5 110.5,48.5C 110.5,38.8333 110.5,29.1667 110.5,19.5 Z"/></g>
<g><path style="opacity:1" fill="#ffb889" d="M 62.5,21.5 C 58.03,22.4861 53.3633,22.8195 48.5,22.5C 48.5,25.1667 48.5,27.8333 48.5,30.5C 47.5233,27.7131 47.19,24.7131 47.5,21.5C 52.5,21.5 57.5,21.5 62.5,21.5 Z"/></g>
<g><path style="opacity:0.711" fill="#000000" d="M 129.5,25.5 C 131.5,25.5 133.5,25.5 135.5,25.5C 135.334,30.8437 135.501,36.1771 136,41.5C 137.482,43.7811 139.149,43.7811 141,41.5C 141.499,36.1771 141.666,30.8437 141.5,25.5C 143.833,25.5 146.167,25.5 148.5,25.5C 148.666,32.8409 148.5,40.1742 148,47.5C 147.107,48.0814 146.107,48.4148 145,48.5C 140.918,48.2677 136.751,48.101 132.5,48C 131.667,47.1667 130.833,46.3333 130,45.5C 129.5,38.8417 129.334,32.175 129.5,25.5 Z"/></g>
<g><path style="opacity:0.685" fill="#000000" d="M 154.5,25.5 C 158.911,25.021 163.078,25.6876 167,27.5C 167.779,29.9063 166.946,31.573 164.5,32.5C 162.293,30.6904 159.959,30.357 157.5,31.5C 160.559,33.5865 163.725,35.5865 167,37.5C 167.667,40.1667 167.667,42.8333 167,45.5C 166.097,46.7014 164.931,47.5348 163.5,48C 160.167,48.6667 156.833,48.6667 153.5,48C 148.362,46.1143 148.195,43.9477 153,41.5C 155.781,43.6638 158.614,43.8304 161.5,42C 157.886,40.0176 154.386,37.8509 151,35.5C 149.581,31.0823 150.748,27.7489 154.5,25.5 Z"/></g>
<g><path style="opacity:0.653" fill="#000000" d="M 168.5,25.5 C 171.833,25.5 175.167,25.5 178.5,25.5C 178.666,32.8409 178.5,40.1742 178,47.5C 175.959,48.4231 173.792,48.7564 171.5,48.5C 171.5,42.8333 171.5,37.1667 171.5,31.5C 170.5,31.5 169.5,31.5 168.5,31.5C 168.5,29.5 168.5,27.5 168.5,25.5 Z"/></g>
<g><path style="opacity:0.708" fill="#000000" d="M 185.5,25.5 C 199.073,24.2806 203.906,30.2806 200,43.5C 198.063,47.3861 194.897,49.0528 190.5,48.5C 184.547,49.0464 181.047,46.3798 180,40.5C 178.801,34.2527 180.634,29.2527 185.5,25.5 Z M 189.5,30.5 C 193.192,31.034 194.859,33.2007 194.5,37C 194.63,40.0421 193.297,42.2087 190.5,43.5C 186.748,41.2158 185.581,37.8825 187,33.5C 187.698,32.3094 188.531,31.3094 189.5,30.5 Z"/></g>
<g><path style="opacity:0.728" fill="#000000" d="M 203.5,25.5 C 208.356,25.8139 213.356,25.9805 218.5,26C 219.333,26.8333 220.167,27.6667 221,28.5C 222.42,35.0496 222.92,41.7163 222.5,48.5C 220.167,48.5 217.833,48.5 215.5,48.5C 215.666,42.8236 215.499,37.1569 215,31.5C 213.221,30.5209 211.555,30.8542 210,32.5C 209.501,37.8229 209.334,43.1563 209.5,48.5C 207.5,48.5 205.5,48.5 203.5,48.5C 203.5,40.8333 203.5,33.1667 203.5,25.5 Z"/></g>
<g><path style="opacity:1" fill="#ffdcc5" d="M 48.5,30.5 C 52.5,30.5 56.5,30.5 60.5,30.5C 60.5,32.8333 60.5,35.1667 60.5,37.5C 56.5,37.5 52.5,37.5 48.5,37.5C 51.9619,36.5184 55.6286,36.185 59.5,36.5C 59.5,34.8333 59.5,33.1667 59.5,31.5C 55.6286,31.815 51.9619,31.4816 48.5,30.5 Z"/></g>
</svg>
